<?xml version="1.0" encoding="UTF-8"?>
<svg version="1.1" xmlns="http://www.w3.org/2000/svg" width="713" height="227">
<path d="M0 0 C1.00256836 0.00757324 2.00513672 0.01514648 3.03808594 0.02294922 C21.80089365 0.43741305 35.77091827 8.22483616 48.6875 21.4375 C59.80620352 33.54820681 65.30098169 48.41418764 65.125 64.75 C65.11670166 65.75329346 65.10840332 66.75658691 65.09985352 67.7902832 C64.69070785 85.86112626 57.3693327 99.71132523 44.6875 112.4375 C44.07390625 113.07429688 43.4603125 113.71109375 42.828125 114.3671875 C31.51725987 125.24301936 15.76577588 130.03310204 0.375 129.875 C-0.62104248 129.87105225 -1.61708496 129.86710449 -2.64331055 129.86303711 C-11.33793057 129.69465414 -19.44231868 128.37259066 -27.3125 124.4375 C-27.3125 123.7775 -27.3125 123.1175 -27.3125 122.4375 C-24.8375 121.4475 -24.8375 121.4475 -22.3125 120.4375 C-21.9825 117.1375 -21.6525 113.8375 -21.3125 110.4375 C-19.765625 110.911875 -18.21875 111.38625 -16.625 111.875 C-0.80912899 116.13311912 12.72181761 114.48323281 26.96875 106.71484375 C37.8546814 100.34734204 44.2414735 90.46276858 47.8984375 78.64453125 C51.07645759 65.72792484 49.92905896 52.27695716 43.6875 40.4375 C35.98554916 28.42325898 25.42630293 20.42892521 11.64453125 16.58984375 C-3.05625079 13.65745526 -16.41447189 16.81600764 -28.9609375 24.7421875 C-40.27871637 32.90151646 -46.57076652 43.97447783 -48.8515625 57.67578125 C-50.31365148 71.87164519 -47.32375178 85.23432211 -38.3125 96.4375 C-37.9825 96.4375 -37.6525 96.4375 -37.3125 96.4375 C-37.00119141 95.22126953 -37.00119141 95.22126953 -36.68359375 93.98046875 C-33.35463392 82.01571353 -28.77644007 73.1360423 -18.28515625 66.09375 C-8.20942296 60.47993802 3.23639445 58.42866999 14.6875 59.4375 C18.42780185 61.04048651 19.41908465 62.03487698 21.6875 65.4375 C22.19182431 68.71560803 22.02224552 69.9740062 20.0625 72.6875 C15.78062415 75.84256642 10.6039795 75.52730692 5.4375 75.75 C-2.09306327 76.30877467 -8.1976278 77.99977393 -14.1875 82.6875 C-20.81374478 91.2626403 -22.60268752 100.63426839 -22.125 111.375 C-22.0509125 115.31873448 -22.14994957 116.19367436 -24.4375 119.625 C-27.85164186 121.77739378 -29.34213205 121.85935159 -33.3125 121.4375 C-37.02675725 119.24853335 -40.11189469 116.31506285 -43.3125 113.4375 C-44.01890625 112.82519531 -44.7253125 112.21289062 -45.453125 111.58203125 C-55.6895669 102.13145792 -63.47624394 88.04473409 -64.48950195 73.98071289 C-65.00476913 52.3661785 -62.03934054 35.95197513 -46.546875 19.6796875 C-45.44085938 18.56980469 -45.44085938 18.56980469 -44.3125 17.4375 C-43.69890625 16.80070312 -43.0853125 16.16390625 -42.453125 15.5078125 C-31.14562604 4.63521734 -15.3882141 -0.1644821 0 0 Z " fill="#F98912" transform="translate(95.3125,11.5625)"/>
<path d="M0 0 C7.42341159 6.10369397 11.30445888 13.96106281 12.75 23.375 C13.79231542 35.16217196 12.59807314 46.43810092 5.625 56.3125 C-1.11675789 64.14907328 -9.55290291 67.68552062 -19.6484375 68.58984375 C-29.34283152 68.97211481 -37.80537841 66.7359517 -45.24609375 60.38671875 C-53.20517828 52.39660465 -56.35865731 43.46389396 -56.5625 32.3125 C-56.28574885 21.20635608 -53.7811767 11.49254626 -46.2265625 3.046875 C-33.53000331 -7.69250708 -13.86716634 -9.41920733 0 0 Z M-34.7890625 15.3046875 C-39.31431972 22.81307517 -39.19816843 30.930098 -38.25 39.375 C-36.64731968 45.40071985 -33.26448884 48.85418868 -28.25 52.375 C-23.69127819 53.89457394 -19.58823723 54.2798513 -15.08984375 52.5390625 C-9.80758389 49.59679439 -6.97406243 46.16784976 -5.25 40.375 C-3.53088192 31.86854907 -3.97568078 23.76118707 -8 16 C-11.12439264 12.35487526 -13.72076052 9.78469499 -18.61328125 8.9921875 C-25.49694383 8.67881895 -30.40866437 9.8125132 -34.7890625 15.3046875 Z " fill="#0982BA" transform="translate(230.25,61.625)"/>
<path d="M0 0 C2.99452296 1.67284651 5.66812736 3.5916388 7.89453125 6.2109375 C8.78140625 5.4271875 9.66828125 4.6434375 10.58203125 3.8359375 C15.69042155 -0.34796453 19.91347906 -1.19472273 26.4609375 -1.0390625 C31.01262173 -0.57147375 33.79080375 1.22984639 37.14453125 4.2109375 C42.46019624 13.32350606 41.1366741 25.17496071 41.01953125 35.3984375 C41.00947522 36.93814518 41.00035404 38.47785926 40.9921875 40.01757812 C40.97211535 43.74899 40.93293378 47.47949188 40.89453125 51.2109375 C35.28453125 51.2109375 29.67453125 51.2109375 23.89453125 51.2109375 C23.83845703 47.59898438 23.83845703 47.59898438 23.78125 43.9140625 C23.73501485 41.57738249 23.68378861 39.24086141 23.63208008 36.90429688 C23.5988629 35.28265064 23.5708209 33.66088969 23.5480957 32.0390625 C23.5144897 29.70523273 23.46217365 27.37245115 23.40625 25.0390625 C23.39986008 24.31599915 23.39347015 23.59293579 23.3868866 22.84796143 C23.29632132 19.7348752 23.05432795 17.50354507 21.55004883 14.74902344 C19.89703226 12.92136419 19.89703226 12.92136419 16.89453125 12.7734375 C13.93472082 12.96840262 13.93472082 12.96840262 12.08203125 14.5234375 C9.48016676 18.22082387 9.68393914 22.17018114 9.578125 26.50390625 C9.5573439 27.20993484 9.53656281 27.91596344 9.51515198 28.64338684 C9.44985634 30.89497301 9.39086478 33.14667412 9.33203125 35.3984375 C9.288827 36.9264441 9.24521209 38.45443914 9.20117188 39.98242188 C9.09342375 43.72514439 8.9942027 47.46795629 8.89453125 51.2109375 C3.61453125 51.2109375 -1.66546875 51.2109375 -7.10546875 51.2109375 C-7.15445312 49.04273438 -7.2034375 46.87453125 -7.25390625 44.640625 C-7.30801677 42.52564988 -7.36528445 40.41078197 -7.42285156 38.29589844 C-7.46098081 36.83341561 -7.49586089 35.37084412 -7.52734375 33.90820312 C-7.57334586 31.79785618 -7.63127816 29.68811116 -7.69140625 27.578125 C-7.7385376 25.67716064 -7.7385376 25.67716064 -7.78662109 23.73779297 C-8.10054439 20.26540711 -8.86109474 17.45504236 -10.10546875 14.2109375 C-13.41114364 13.35706645 -13.41114364 13.35706645 -17.10546875 13.2109375 C-20.0511948 15.38147249 -20.94607816 16.73276573 -22.10546875 20.2109375 C-22.25725889 22.5664823 -22.35446164 24.92568873 -22.421875 27.28515625 C-22.4426561 27.9689888 -22.46343719 28.65282135 -22.48484802 29.3573761 C-22.55013029 31.5376296 -22.60912892 33.71800155 -22.66796875 35.8984375 C-22.71117428 37.37826736 -22.75478922 38.85808533 -22.79882812 40.33789062 C-22.906559 43.96212004 -23.00578982 47.58644188 -23.10546875 51.2109375 C-28.38546875 51.2109375 -33.66546875 51.2109375 -39.10546875 51.2109375 C-39.10546875 34.3809375 -39.10546875 17.5509375 -39.10546875 0.2109375 C-33.82546875 0.2109375 -28.54546875 0.2109375 -23.10546875 0.2109375 C-22.77546875 1.8609375 -22.44546875 3.5109375 -22.10546875 5.2109375 C-21.63496094 4.86160156 -21.16445313 4.51226562 -20.6796875 4.15234375 C-20.05707031 3.69730469 -19.43445313 3.24226563 -18.79296875 2.7734375 C-18.17808594 2.32097656 -17.56320312 1.86851563 -16.9296875 1.40234375 C-12.13649168 -1.72811605 -5.31180461 -1.99069486 0 0 Z " fill="#0982BA" transform="translate(290.10546875,76.7890625)"/>
<path d="M0 0 C1.6097168 0.07250977 1.6097168 0.07250977 3.25195312 0.14648438 C4.37150391 0.20255859 5.49105469 0.25863281 6.64453125 0.31640625 C8.34125977 0.3947168 8.34125977 0.3947168 10.07226562 0.47460938 C12.86746405 0.60434432 15.66231065 0.73931266 18.45703125 0.87890625 C19.58235387 4.73297879 20.70723133 8.58718113 21.83203125 12.44140625 C22.14914062 13.52744141 22.46625 14.61347656 22.79296875 15.73242188 C23.40894185 17.84341301 24.0232511 19.95489049 24.63574219 22.06689453 C25.12437386 23.73992057 25.61986352 25.41100617 26.12988281 27.07763672 C27.08547637 30.23345495 27.45703125 32.51669409 27.45703125 35.87890625 C28.11703125 35.87890625 28.77703125 35.87890625 29.45703125 35.87890625 C29.54984375 34.82445312 29.64265625 33.77 29.73828125 32.68359375 C30.49585233 26.63102765 32.27534964 20.85264632 33.95703125 15.00390625 C34.27800781 13.864375 34.59898437 12.72484375 34.9296875 11.55078125 C37.30470896 3.18355082 37.30470896 3.18355082 38.45703125 0.87890625 C44.06703125 0.87890625 49.67703125 0.87890625 55.45703125 0.87890625 C54.78655664 4.90175388 54.26430259 7.80983426 52.890625 11.47558594 C52.57359619 12.3295697 52.25656738 13.18355347 51.92993164 14.06341553 C51.58824951 14.96674622 51.24656738 15.8700769 50.89453125 16.80078125 C50.3675061 18.2125766 50.3675061 18.2125766 49.82983398 19.65289307 C48.7106293 22.64682151 47.5838012 25.63781797 46.45703125 28.62890625 C45.69874585 30.65607317 44.94092818 32.68341511 44.18359375 34.7109375 C42.79955603 38.40823613 41.41544605 42.10549888 40.0234375 45.79980469 C39.74443604 46.54115662 39.46543457 47.28250854 39.17797852 48.04632568 C38.45703125 49.87890625 38.45703125 49.87890625 37.45703125 51.87890625 C31.18703125 51.87890625 24.91703125 51.87890625 18.45703125 51.87890625 C12.74878139 37.00741321 7.60626649 21.95073309 2.45703125 6.87890625 C2.12703125 9.84890625 1.79703125 12.81890625 1.45703125 15.87890625 C0.79316406 15.82089844 0.12929688 15.76289062 -0.5546875 15.703125 C-6.48211595 15.36319832 -6.48211595 15.36319832 -11.60546875 18.12890625 C-14.62079892 22.40872972 -14.68850637 26.00090279 -14.859375 31.17578125 C-14.90126953 32.38105469 -14.94316406 33.58632812 -14.98632812 34.828125 C-15.02564453 36.08238281 -15.06496094 37.33664063 -15.10546875 38.62890625 C-15.14865234 39.89863281 -15.19183594 41.16835937 -15.23632812 42.4765625 C-15.3423653 45.61055005 -15.44316723 48.74471393 -15.54296875 51.87890625 C-20.82296875 51.87890625 -26.10296875 51.87890625 -31.54296875 51.87890625 C-31.54296875 35.04890625 -31.54296875 18.21890625 -31.54296875 0.87890625 C-26.26296875 0.87890625 -20.98296875 0.87890625 -15.54296875 0.87890625 C-15.21296875 2.52890625 -14.88296875 4.17890625 -14.54296875 5.87890625 C-13.61484375 5.07453125 -12.68671875 4.27015625 -11.73046875 3.44140625 C-7.91612058 0.13563784 -4.97214215 -0.23676867 0 0 Z " fill="#0982BA" transform="translate(629.54296875,76.12109375)"/>
<path d="M0 0 C168.3 0 336.6 0 510 0 C510 1.32 510 2.64 510 4 C341.7 4 173.4 4 0 4 C0 2.68 0 1.36 0 0 Z " fill="#0982BA" transform="translate(174,139)"/>
<path d="M0 0 C4.98721373 3.44355234 6.84330431 6.71758332 8.22796631 12.59375 C8.87799934 16.22634045 8.87122874 19.78827611 8.8203125 23.46875 C8.8174826 24.25648804 8.81465271 25.04422607 8.81173706 25.85583496 C8.80065169 28.34155264 8.7755701 30.8268935 8.75 33.3125 C8.7399551 35.01041142 8.73083191 36.70832855 8.72265625 38.40625 C8.70246253 42.5419243 8.66329355 46.6767965 8.625 50.8125 C3.345 50.8125 -1.935 50.8125 -7.375 50.8125 C-7.42398438 48.8840625 -7.47296875 46.955625 -7.5234375 44.96875 C-7.59849917 42.41665312 -7.67404552 39.86457046 -7.75 37.3125 C-7.7809375 36.0440625 -7.811875 34.775625 -7.84375 33.46875 C-7.66820388 22.32403905 -7.66820388 22.32403905 -12.375 12.8125 C-15.29038029 12.31207854 -15.29038029 12.31207854 -18.375 12.8125 C-21.22280619 15.04456431 -22.22497666 16.36242999 -23.375 19.8125 C-23.52679014 22.1680448 -23.62399289 24.52725123 -23.69140625 26.88671875 C-23.71218735 27.5705513 -23.73296844 28.25438385 -23.75437927 28.9589386 C-23.81966154 31.1391921 -23.87866017 33.31956405 -23.9375 35.5 C-23.98070553 36.97982986 -24.02432047 38.45964783 -24.06835938 39.93945312 C-24.17609025 43.56368254 -24.27532107 47.18800438 -24.375 50.8125 C-29.655 50.8125 -34.935 50.8125 -40.375 50.8125 C-40.375 33.9825 -40.375 17.1525 -40.375 -0.1875 C-35.095 -0.1875 -29.815 -0.1875 -24.375 -0.1875 C-24.045 1.4625 -23.715 3.1125 -23.375 4.8125 C-22.653125 4.19375 -21.93125 3.575 -21.1875 2.9375 C-14.74177404 -1.93260406 -7.62206292 -2.68183695 0 0 Z " fill="#0982BA" transform="translate(484.375,77.1875)"/>
<path d="M0 0 C5.15614171 3.2851367 9.12931178 8.32569105 10.8515625 14.1796875 C10.98958574 16.99812213 11.04132563 19.68301527 10.9765625 22.4921875 C10.9353125 25.0290625 10.8940625 27.5659375 10.8515625 30.1796875 C-4.4934375 30.6746875 -4.4934375 30.6746875 -20.1484375 31.1796875 C-18.70168096 36.30345842 -18.70168096 36.30345842 -14.9609375 37.9921875 C-7.01138557 40.46827745 -0.90791582 38.47879219 6.8515625 36.1796875 C6.8515625 40.1396875 6.8515625 44.0996875 6.8515625 48.1796875 C-3.2032151 52.8048852 -13.29192932 53.73671065 -23.890625 50.1484375 C-29.71704287 47.64852118 -32.73107673 43.80317775 -35.38671875 38.14453125 C-38.47969887 30.16622868 -38.3990197 20.19272786 -35.2421875 12.2421875 C-31.66681779 5.50006175 -27.06956907 1.27695893 -19.828125 -1.19921875 C-13.21928953 -2.73100423 -6.29764626 -2.72120517 0 0 Z M-20.1484375 15.1796875 C-20.4784375 16.4996875 -20.8084375 17.8196875 -21.1484375 19.1796875 C-15.5384375 19.1796875 -9.9284375 19.1796875 -4.1484375 19.1796875 C-4.68675758 13.6895325 -4.68675758 13.6895325 -6.2734375 11.3046875 C-12.05806104 7.83391338 -16.41761563 10.35156508 -20.1484375 15.1796875 Z " fill="#0982BA" transform="translate(580.1484375,77.8203125)"/>
<path d="M0 0 C0 4.29 0 8.58 0 13 C-0.928125 12.67 -1.85625 12.34 -2.8125 12 C-7.80904873 10.54010305 -12.8433358 10.83215198 -18 11 C-18.33 12.32 -18.66 13.64 -19 15 C-18.443125 15.24234375 -17.88625 15.4846875 -17.3125 15.734375 C-14.86806892 16.8079427 -12.43357513 17.90206145 -10 19 C-9.26136719 19.32355469 -8.52273438 19.64710937 -7.76171875 19.98046875 C-3.43769279 21.97554664 -0.34889855 23.67802667 2 28 C3.34274258 33.08135918 3.6086675 37.51485519 1.4375 42.375 C-1.58831499 47.47977632 -5.58942133 49.79242595 -11.25 51.25 C-19.29328761 52.76149029 -27.1682092 52.44408961 -35 50 C-36 49 -36 49 -36.09765625 46.05859375 C-36.08605469 44.86363281 -36.07445312 43.66867188 -36.0625 42.4375 C-36.05347656 41.23996094 -36.04445313 40.04242188 -36.03515625 38.80859375 C-36.02355469 37.88175781 -36.01195312 36.95492187 -36 36 C-35.39414062 36.2165625 -34.78828125 36.433125 -34.1640625 36.65625 C-28.01112787 38.70091751 -20.166732 41.083366 -14 38 C-14.23693795 36.04533247 -14.23693795 36.04533247 -15 34 C-17.61389599 32.65317902 -20.08228844 31.5462228 -22.8125 30.5 C-31.86998714 26.97361834 -31.86998714 26.97361834 -35 23 C-36.92962772 17.21111685 -36.96580594 11.12477307 -34.4375 5.5625 C-25.68170305 -3.64231218 -11.48773799 -4.37628114 0 0 Z " fill="#0982BA" transform="translate(536,78)"/>
<path d="M0 0 C1.21494141 -0.020625 2.42988281 -0.04125 3.68164062 -0.0625 C4.85791016 -0.06765625 6.03417969 -0.0728125 7.24609375 -0.078125 C8.84795532 -0.09214355 8.84795532 -0.09214355 10.48217773 -0.10644531 C14.24599054 0.3290914 17.81571567 1.50321567 20.5625 4.25 C21.03485719 11.57153648 21.03485719 11.57153648 19.44848633 13.85009766 C16.68071565 15.90451799 14.47602515 15.63567292 11.05859375 15.65625 C9.75986328 15.67816406 8.46113281 15.70007812 7.12304688 15.72265625 C5.74870994 15.7334328 4.37435892 15.74253683 3 15.75 C-11.78446645 15.76552842 -11.78446645 15.76552842 -25.375 21 C-30.53168554 26.62547514 -30.96441043 32.92127324 -31.71484375 40.26171875 C-32.56192417 43.76451078 -33.60926483 45.06762333 -36.4375 47.25 C-39.4375 47.75 -39.4375 47.75 -42.4375 47.25 C-45.37901806 45.03853262 -46.33390688 43.84794559 -46.96875 40.18359375 C-46.86622788 28.71393171 -44.72370399 18.64668671 -36.4375 10.25 C-25.5350906 1.19894314 -13.68249105 0.05788468 0 0 Z " fill="#F99E1B" transform="translate(104.4375,32.75)"/>
<path d="M0 0 C5.28 0 10.56 0 16 0 C16 16.83 16 33.66 16 51 C10.72 51 5.44 51 0 51 C0 34.17 0 17.34 0 0 Z " fill="#0982BA" transform="translate(417,77)"/>
<path d="M0 0 C1.21186051 1.92471963 1.77138979 3.43139586 2.0625 5.6875 C1.7325 6.3475 1.4025 7.0075 1.0625 7.6875 C0.83782169 9.22418865 0.65453195 10.76718054 0.5 12.3125 C0.41621094 13.12976563 0.33242188 13.94703125 0.24609375 14.7890625 C0.15521484 15.72878906 0.15521484 15.72878906 0.0625 16.6875 C-0.2675 16.6875 -0.5975 16.6875 -0.9375 16.6875 C-1.4325 13.7175 -1.4325 13.7175 -1.9375 10.6875 C-4.48246689 10.91721198 -7.0213986 11.17048409 -9.5625 11.4375 C-10.27535156 11.499375 -10.98820312 11.56125 -11.72265625 11.625 C-17.5537959 12.26696033 -21.46680985 14.21680985 -25.6875 18.4375 C-29.0750966 24.53517389 -29.22548326 31.2331428 -29.49609375 38.05078125 C-29.9375 40.6875 -29.9375 40.6875 -31.28515625 42.51953125 C-33.86839539 44.3455088 -35.87121962 44.07078505 -38.9375 43.6875 C-40.6015625 42.60546875 -40.6015625 42.60546875 -41.9375 40.6875 C-43.36941548 29.1058307 -41.56104046 18.31417999 -34.7421875 8.73046875 C-28.76070174 1.95921972 -20.89172138 -1.27906492 -12.02734375 -2.21484375 C-7.82791334 -2.41107882 -3.57995296 -2.42512942 0 0 Z " fill="#0982BA" transform="translate(407.9375,84.3125)"/>
<path d="M0 0 C0.89396484 -0.020625 1.78792969 -0.04125 2.70898438 -0.0625 C11.30550077 -0.11355578 11.30550077 -0.11355578 15.0625 3.25 C15.54557263 6.63150841 15.85527804 9.00703728 13.96875 11.96484375 C11.03966395 13.93957594 8.54452757 13.4587737 5.0625 13.3125 C-2.556073 13.11514198 -11.28149443 12.99073396 -17.9375 17.25 C-19.90849846 21.57103509 -20.98847581 25.45783692 -21.75 30.125 C-22.21875 32.37890625 -22.21875 32.37890625 -22.9375 34.25 C-25.75 36.0625 -25.75 36.0625 -28.9375 36.25 C-31.8125 35 -31.8125 35 -33.9375 32.25 C-35.41517514 24.33189172 -32.95885134 17.75367565 -29.0625 11 C-21.73261045 1.51426058 -11.2751444 0.06475316 0 0 Z " fill="#0982BA" transform="translate(399.9375,54.75)"/>
<path d="M0 0 C0.763125 0.061875 1.52625 0.12375 2.3125 0.1875 C1.9825 1.8375 1.6525 3.4875 1.3125 5.1875 C0.3225 5.5175 -0.6675 5.8475 -1.6875 6.1875 C-1.97625 7.280625 -2.265 8.37375 -2.5625 9.5 C-3.88633184 13.83922657 -4.74718951 15.00775377 -8.6875 17.1875 C-11.07088294 17.59352776 -13.38176656 17.81010088 -15.796875 17.9140625 C-16.42078125 18.00429687 -17.0446875 18.09453125 -17.6875 18.1875 C-18.0175 18.8475 -18.3475 19.5075 -18.6875 20.1875 C-17.92824219 20.15269531 -17.16898437 20.11789063 -16.38671875 20.08203125 C-14.89591797 20.04142578 -14.89591797 20.04142578 -13.375 20 C-12.38886719 19.96519531 -11.40273438 19.93039063 -10.38671875 19.89453125 C-7.6875 20.1875 -7.6875 20.1875 -5.8359375 21.51953125 C-4.6875 23.1875 -4.6875 23.1875 -4.625 26.0625 C-6.21085033 30.72676569 -9.26338365 32.97544182 -13.6875 35.1875 C-15.6847542 35.30949138 -17.68655981 35.36297512 -19.6875 35.375 C-20.76 35.38917969 -21.8325 35.40335938 -22.9375 35.41796875 C-25.6875 35.1875 -25.6875 35.1875 -27.6875 33.1875 C-28.0625 30.3125 -28.0625 30.3125 -27.6875 27.1875 C-26.39646357 25.8131709 -25.0618291 24.47853643 -23.6875 23.1875 C-22.95009783 20.66801222 -22.95009783 20.66801222 -22.6875 18.1875 C-22.3575 17.1975 -22.0275 16.2075 -21.6875 15.1875 C-21.790625 14.07375 -21.89375 12.96 -22 11.8125 C-21.6875 8.1875 -21.6875 8.1875 -19.3125 5.25 C-15.69177706 2.57982485 -12.29214694 2.89181934 -7.95703125 3.3046875 C-5.60123893 3.42297066 -5.60123893 3.42297066 -4.0546875 1.70703125 C-2.6875 0.1875 -2.6875 0.1875 0 0 Z M-15.6875 9.1875 C-15.6875 10.5075 -15.6875 11.8275 -15.6875 13.1875 C-14.6975 13.5175 -13.7075 13.8475 -12.6875 14.1875 C-11.3675 12.8675 -10.0475 11.5475 -8.6875 10.1875 C-9.3475 8.8675 -10.0075 7.5475 -10.6875 6.1875 C-12.82656308 6.1875 -14.19519333 7.8396101 -15.6875 9.1875 Z M-21.6875 27.1875 C-21.6875 28.5075 -21.6875 29.8275 -21.6875 31.1875 C-19.98637008 31.99219849 -19.98637008 31.99219849 -17.6875 32.1875 C-14.47037055 30.82935993 -14.47037055 30.82935993 -11.6875 29.1875 C-11.6875 27.8675 -11.6875 26.5475 -11.6875 25.1875 C-17.27414846 24.58328469 -17.27414846 24.58328469 -21.6875 27.1875 Z " fill="#0982BA" transform="translate(334.6875,161.8125)"/>
<path d="M0 0 C-0.27714844 0.92941406 -0.55429687 1.85882813 -0.83984375 2.81640625 C-1.20207031 4.05261719 -1.56429687 5.28882813 -1.9375 6.5625 C-2.29714844 7.78066406 -2.65679688 8.99882812 -3.02734375 10.25390625 C-3.96676959 13.87201619 -4.54743991 17.29853486 -5 21 C-6.98 21.33 -8.96 21.66 -11 22 C-11.33 21.34 -11.66 20.68 -12 20 C-12.556875 20.33 -13.11375 20.66 -13.6875 21 C-16.35263324 22.15249005 -18.12393149 22.30274405 -21 22 C-23.37160148 19.62839852 -23.31983352 18.99378878 -23.375 15.75 C-23.2556728 11.10369729 -22.13118917 8.54318775 -19 5 C-13.67933116 0.54548655 -6.8351242 -2.14950739 0 0 Z M-14.1875 7.0625 C-16.27590524 10.44715677 -16.69156996 13.06751693 -17 17 C-13.9925959 16.67777813 -12.99223238 15.99223238 -10.8125 13.8125 C-8.85143288 10.76946481 -8.33238924 8.57318436 -8 5 C-12.01602429 4.54265809 -12.01602429 4.54265809 -14.1875 7.0625 Z " fill="#0982BA" transform="translate(623,165)"/>
<path d="M0 0 C-0.27714844 0.92941406 -0.55429687 1.85882813 -0.83984375 2.81640625 C-1.20207031 4.05261719 -1.56429687 5.28882813 -1.9375 6.5625 C-2.29714844 7.78066406 -2.65679688 8.99882812 -3.02734375 10.25390625 C-3.96676959 13.87201619 -4.54743991 17.29853486 -5 21 C-6.98 21.33 -8.96 21.66 -11 22 C-11.33 21.34 -11.66 20.68 -12 20 C-12.556875 20.33 -13.11375 20.66 -13.6875 21 C-16.35263324 22.15249005 -18.12393149 22.30274405 -21 22 C-23.37160148 19.62839852 -23.31983352 18.99378878 -23.375 15.75 C-23.2556728 11.10369729 -22.13118917 8.54318775 -19 5 C-13.67933116 0.54548655 -6.8351242 -2.14950739 0 0 Z M-14.1875 7.0625 C-16.27590524 10.44715677 -16.69156996 13.06751693 -17 17 C-13.9925959 16.67777813 -12.99223238 15.99223238 -10.8125 13.8125 C-8.85143288 10.76946481 -8.33238924 8.57318436 -8 5 C-12.01602429 4.54265809 -12.01602429 4.54265809 -14.1875 7.0625 Z " fill="#0982BA" transform="translate(549,165)"/>
<path d="M0 0 C3 0 6 0 9 0 C9.66257812 -0.01160156 10.32515625 -0.02320313 11.0078125 -0.03515625 C13.00507614 -0.06095117 15.00282955 -0.03221243 17 0 C18 1 18 1 18.25 4.3125 C18.20807393 10.06685359 16.5415151 15.49458892 15 21 C12.69 21.33 10.38 21.66 8 22 C8.13277344 21.443125 8.26554688 20.88625 8.40234375 20.3125 C9.58220305 15.2141299 10.43249539 10.20212559 11 5 C7.68597718 6.56692677 6.24877962 7.42057397 4.77734375 10.84765625 C4.50019531 11.90855469 4.22304688 12.96945313 3.9375 14.0625 C2.46190941 19.67246424 2.46190941 19.67246424 0.06640625 21.37109375 C-2 22 -2 22 -5 22 C-3.38168081 14.65532059 -1.69857238 7.32650887 0 0 Z " fill="#0982BA" transform="translate(552,165)"/>
<path d="M0 0 C3 0 6 0 9 0 C9.66257812 -0.01160156 10.32515625 -0.02320313 11.0078125 -0.03515625 C13.00507614 -0.06095117 15.00282955 -0.03221243 17 0 C18 1 18 1 18.25 4.3125 C18.20807393 10.06685359 16.5415151 15.49458892 15 21 C12.69 21.33 10.38 21.66 8 22 C8.13277344 21.443125 8.26554688 20.88625 8.40234375 20.3125 C9.58220305 15.2141299 10.43249539 10.20212559 11 5 C7.68597718 6.56692677 6.24877962 7.42057397 4.77734375 10.84765625 C4.50019531 11.90855469 4.22304688 12.96945313 3.9375 14.0625 C2.46190941 19.67246424 2.46190941 19.67246424 0.06640625 21.37109375 C-2 22 -2 22 -5 22 C-3.38168081 14.65532059 -1.69857238 7.32650887 0 0 Z " fill="#0982BA" transform="translate(507,165)"/>
<path d="M0 0 C3 0 6 0 9 0 C9.66257812 -0.01160156 10.32515625 -0.02320313 11.0078125 -0.03515625 C13.00507614 -0.06095117 15.00282955 -0.03221243 17 0 C18 1 18 1 18.25 4.3125 C18.20807393 10.06685359 16.5415151 15.49458892 15 21 C12.69 21.33 10.38 21.66 8 22 C8.13277344 21.443125 8.26554687 20.88625 8.40234375 20.3125 C9.58220305 15.2141299 10.43249539 10.20212559 11 5 C7.68597718 6.56692677 6.24877962 7.42057397 4.77734375 10.84765625 C4.50019531 11.90855469 4.22304688 12.96945313 3.9375 14.0625 C2.46190941 19.67246424 2.46190941 19.67246424 0.06640625 21.37109375 C-2 22 -2 22 -5 22 C-3.38168081 14.65532059 -1.69857238 7.32650887 0 0 Z " fill="#0982BA" transform="translate(443,165)"/>
<path d="M0 0 C3 0 6 0 9 0 C9.66257812 -0.01160156 10.32515625 -0.02320313 11.0078125 -0.03515625 C13.00507614 -0.06095117 15.00282955 -0.03221243 17 0 C18 1 18 1 18.25 4.3125 C18.20807393 10.06685359 16.5415151 15.49458892 15 21 C12.69 21.33 10.38 21.66 8 22 C8.13277344 21.443125 8.26554687 20.88625 8.40234375 20.3125 C9.58220305 15.2141299 10.43249539 10.20212559 11 5 C7.68597718 6.56692677 6.24877962 7.42057397 4.77734375 10.84765625 C4.50019531 11.90855469 4.22304688 12.96945313 3.9375 14.0625 C2.46190941 19.67246424 2.46190941 19.67246424 0.06640625 21.37109375 C-2 22 -2 22 -5 22 C-3.38168081 14.65532059 -1.69857238 7.32650887 0 0 Z " fill="#0982BA" transform="translate(359,165)"/>
<path d="M0 0 C3 0 6 0 9 0 C9.66257813 -0.01160156 10.32515625 -0.02320313 11.0078125 -0.03515625 C13.00507614 -0.06095117 15.00282955 -0.03221243 17 0 C18 1 18 1 18.25 4.3125 C18.20807393 10.06685359 16.5415151 15.49458892 15 21 C12.69 21.33 10.38 21.66 8 22 C8.13277344 21.443125 8.26554688 20.88625 8.40234375 20.3125 C9.58220305 15.2141299 10.43249539 10.20212559 11 5 C7.68597718 6.56692677 6.24877962 7.42057397 4.77734375 10.84765625 C4.50019531 11.90855469 4.22304687 12.96945313 3.9375 14.0625 C2.46190941 19.67246424 2.46190941 19.67246424 0.06640625 21.37109375 C-2 22 -2 22 -5 22 C-3.38168081 14.65532059 -1.69857238 7.32650887 0 0 Z " fill="#0982BA" transform="translate(222,165)"/>
<path d="M0 0 C1.19109375 -0.00386719 1.19109375 -0.00386719 2.40625 -0.0078125 C4.5 0.125 4.5 0.125 6.5 1.125 C6.75 4.4375 6.75 4.4375 6.5 8.125 C4.15277087 10.63988835 1.87173672 11.64332333 -1.5 12.125 C-3.83300933 12.16388349 -6.16709801 12.1698635 -8.5 12.125 C-7.84 13.445 -7.18 14.765 -6.5 16.125 C-3.2 15.795 0.1 15.465 3.5 15.125 C3.3125 17.5 3.3125 17.5 2.5 20.125 C-1.59006549 22.72776895 -5.81730341 22.42710946 -10.5 22.125 C-13.5 20.125 -13.5 20.125 -14.1171875 18.171875 C-14.70555515 12.93005413 -14.63984853 9.62544956 -11.5 5.125 C-7.60569835 1.61063022 -5.21417726 -0.01692915 0 0 Z M-2.5 4.125 C-4.77144074 5.97932087 -4.77144074 5.97932087 -6.5 8.125 C-4.1568787 7.86938677 -1.82156597 7.53229228 0.5 7.125 C0.83 6.465 1.16 5.805 1.5 5.125 C-0.28141747 4.26141377 -0.28141747 4.26141377 -2.5 4.125 Z " fill="#0982BA" transform="translate(411.5,164.875)"/>
<path d="M0 0 C1.19109375 -0.00386719 1.19109375 -0.00386719 2.40625 -0.0078125 C4.5 0.125 4.5 0.125 6.5 1.125 C6.75 4.4375 6.75 4.4375 6.5 8.125 C4.15277087 10.63988835 1.87173672 11.64332333 -1.5 12.125 C-3.83300933 12.16388349 -6.16709801 12.1698635 -8.5 12.125 C-7.84 13.445 -7.18 14.765 -6.5 16.125 C-3.2 15.795 0.1 15.465 3.5 15.125 C3.3125 17.5 3.3125 17.5 2.5 20.125 C-1.59006549 22.72776895 -5.81730341 22.42710946 -10.5 22.125 C-13.5 20.125 -13.5 20.125 -14.1171875 18.171875 C-14.70555515 12.93005413 -14.63984853 9.62544956 -11.5 5.125 C-7.60569835 1.61063022 -5.21417726 -0.01692915 0 0 Z M-2.5 4.125 C-4.77144074 5.97932087 -4.77144074 5.97932087 -6.5 8.125 C-4.1568787 7.86938677 -1.82156597 7.53229228 0.5 7.125 C0.83 6.465 1.16 5.805 1.5 5.125 C-0.28141747 4.26141377 -0.28141747 4.26141377 -2.5 4.125 Z " fill="#0982BA" transform="translate(348.5,164.875)"/>
<path d="M0 0 C1.19109375 -0.00386719 1.19109375 -0.00386719 2.40625 -0.0078125 C4.5 0.125 4.5 0.125 6.5 1.125 C6.75 4.4375 6.75 4.4375 6.5 8.125 C4.15277087 10.63988835 1.87173672 11.64332333 -1.5 12.125 C-3.83300933 12.16388349 -6.16709801 12.1698635 -8.5 12.125 C-7.84 13.445 -7.18 14.765 -6.5 16.125 C-3.2 15.795 0.1 15.465 3.5 15.125 C3.3125 17.5 3.3125 17.5 2.5 20.125 C-1.59006549 22.72776895 -5.81730341 22.42710946 -10.5 22.125 C-13.5 20.125 -13.5 20.125 -14.1171875 18.171875 C-14.70555515 12.93005413 -14.63984853 9.62544956 -11.5 5.125 C-7.60569835 1.61063022 -5.21417726 -0.01692915 0 0 Z M-2.5 4.125 C-4.77144074 5.97932087 -4.77144074 5.97932087 -6.5 8.125 C-4.1568787 7.86938677 -1.82156597 7.53229228 0.5 7.125 C0.83 6.465 1.16 5.805 1.5 5.125 C-0.28141747 4.26141377 -0.28141747 4.26141377 -2.5 4.125 Z " fill="#0982BA" transform="translate(271.5,164.875)"/>
<path d="M0 0 C5.61 0 11.22 0 17 0 C16.67 1.65 16.34 3.3 16 5 C12.37 5.33 8.74 5.66 5 6 C4.34 7.98 3.68 9.96 3 12 C5.97 12 8.94 12 12 12 C11.67 13.65 11.34 15.3 11 17 C8.03 17.33 5.06 17.66 2 18 C1.01 21.3 0.02 24.6 -1 28 C-3.31 28 -5.62 28 -8 28 C-6.85764996 23.70739832 -5.71053368 19.4160848 -4.5625 15.125 C-4.23701172 13.90167969 -3.91152344 12.67835938 -3.57617188 11.41796875 C-3.26357422 10.25136719 -2.95097656 9.08476562 -2.62890625 7.8828125 C-2.34088135 6.80402832 -2.05285645 5.72524414 -1.75610352 4.61376953 C-1 2 -1 2 0 0 Z " fill="#0982BA" transform="translate(479,158)"/>
<path d="M0 0 C2.31589683 1.8092944 2.85921303 3.02052494 3.2734375 5.90234375 C3.42781233 9.09077782 3.21720509 11.4705626 2 14.4375 C-1.07002813 16.83595948 -4.14246125 17.33838059 -8 17 C-10.85993478 15.23535939 -12.49782849 14.00434303 -14 11 C-14.43023798 7.12785818 -14.31669086 5.47503629 -12.125 2.1875 C-8.35869653 -1.68957711 -5.03234341 -1.29667744 0 0 Z " fill="#0982BA" transform="translate(431,57)"/>
<path d="M0 0 C0.98484375 0.02707031 1.9696875 0.05414063 2.984375 0.08203125 C3.73203125 0.11683594 4.4796875 0.15164062 5.25 0.1875 C4.92 1.8375 4.59 3.4875 4.25 5.1875 C1.28 5.1875 -1.69 5.1875 -4.75 5.1875 C-2.05569594 8.12433968 -2.05569594 8.12433968 0.4375 9.5 C2.25 11.1875 2.25 11.1875 2.75 14.125 C2.14626588 17.82287148 1.18015471 18.92709494 -1.75 21.1875 C-4.63211302 22.14820434 -6.44850044 22.29331883 -9.4375 22.25 C-10.64986328 22.23646484 -10.64986328 22.23646484 -11.88671875 22.22265625 C-12.50160156 22.21105469 -13.11648438 22.19945312 -13.75 22.1875 C-14.75 19.1875 -14.75 19.1875 -13.75 16.1875 C-10.78 16.1875 -7.81 16.1875 -4.75 16.1875 C-4.75 15.5275 -4.75 14.8675 -4.75 14.1875 C-6.71147874 12.79811923 -8.71166576 11.4614589 -10.75 10.1875 C-10.26097653 3.70793906 -10.26097653 3.70793906 -8.0625 1.46875 C-5.17684118 -0.13006097 -3.27711048 -0.11703966 0 0 Z " fill="#0982BA" transform="translate(645.75,164.8125)"/>
<path d="M0 0 C-0.33 2.31 -0.66 4.62 -1 7 C0.32 6.67 1.64 6.34 3 6 C2.67 7.98 2.34 9.96 2 12 C0.35 11.67 -1.3 11.34 -3 11 C-3.66 14.96 -4.32 18.92 -5 23 C-3.35 22.67 -1.7 22.34 0 22 C-0.375 24.4375 -0.375 24.4375 -1 27 C-3.73905345 28.36952673 -5.97087332 28.12621361 -9 28 C-9.66 27.67 -10.32 27.34 -11 27 C-11.2358396 21.22192976 -10.86783046 16.48675196 -9 11 C-9.66 11 -10.32 11 -11 11 C-10.67 9.68 -10.34 8.36 -10 7 C-9.01 7 -8.02 7 -7 7 C-6.566875 5.5459375 -6.566875 5.5459375 -6.125 4.0625 C-4.66280494 0.08208012 -4.16327974 0 0 0 Z " fill="#0982BA" transform="translate(255,159)"/>
<path d="M0 0 C0.89203125 0.01804688 1.7840625 0.03609375 2.703125 0.0546875 C3.71632813 0.08949219 3.71632813 0.08949219 4.75 0.125 C4.09 1.775 3.43 3.425 2.75 5.125 C-0.27734375 5.36914062 -0.27734375 5.36914062 -3.3046875 5.61328125 C-5.64519216 5.99893036 -5.64519216 5.99893036 -7.25 9.125 C-7.32905064 11.45699388 -7.33798769 13.79332622 -7.25 16.125 C-4.61 15.795 -1.97 15.465 0.75 15.125 C0.5 17.5 0.5 17.5 -0.25 20.125 C-2.53643526 21.90333853 -4.31991494 22.13541286 -7.1875 22.5625 C-10.25 22.125 -10.25 22.125 -13.1875 20.1875 C-15.69595706 16.46282134 -15.72008725 14.65942713 -14.96484375 10.34375 C-13.61613875 6.15760553 -11.17036902 3.3277789 -7.41015625 0.97265625 C-4.80412793 -0.04996246 -2.79015469 -0.07342512 0 0 Z " fill="#0982BA" transform="translate(586.25,164.875)"/>
<path d="M0 0 C0.89203125 0.01804688 1.7840625 0.03609375 2.703125 0.0546875 C3.71632813 0.08949219 3.71632813 0.08949219 4.75 0.125 C4.09 1.775 3.43 3.425 2.75 5.125 C-0.27734375 5.36914062 -0.27734375 5.36914062 -3.3046875 5.61328125 C-5.64519216 5.99893036 -5.64519216 5.99893036 -7.25 9.125 C-7.32905064 11.45699388 -7.33798769 13.79332622 -7.25 16.125 C-4.61 15.795 -1.97 15.465 0.75 15.125 C0.5 17.5 0.5 17.5 -0.25 20.125 C-2.53643526 21.90333853 -4.31991494 22.13541286 -7.1875 22.5625 C-10.25 22.125 -10.25 22.125 -13.1875 20.1875 C-15.69595706 16.46282134 -15.72008725 14.65942713 -14.96484375 10.34375 C-13.61613875 6.15760553 -11.17036902 3.3277789 -7.41015625 0.97265625 C-4.80412793 -0.04996246 -2.79015469 -0.07342512 0 0 Z " fill="#0982BA" transform="translate(393.25,164.875)"/>
<path d="M0 0 C-2.54483833 10.365561 -5.26943661 20.68213991 -8 31 C-10.31 31.33 -12.62 31.66 -15 32 C-13.52452698 25.07387178 -11.76286561 18.26181804 -9.875 11.4375 C-9.45927734 9.92446289 -9.45927734 9.92446289 -9.03515625 8.38085938 C-8.35871949 5.92002911 -7.68029918 3.45976474 -7 1 C-4.50935112 0.31292445 -2.62113708 0 0 0 Z " fill="#0982BA" transform="translate(636,155)"/>
<path d="M0 0 C-2.54483833 10.365561 -5.26943661 20.68213991 -8 31 C-10.31 31.33 -12.62 31.66 -15 32 C-13.52452698 25.07387178 -11.76286561 18.26181804 -9.875 11.4375 C-9.45927734 9.92446289 -9.45927734 9.92446289 -9.03515625 8.38085938 C-8.35871949 5.92002911 -7.68029918 3.45976474 -7 1 C-4.50935112 0.31292445 -2.62113708 0 0 0 Z " fill="#0982BA" transform="translate(304,155)"/>
<path d="M0 0 C-2.54483833 10.365561 -5.26943661 20.68213991 -8 31 C-10.31 31.33 -12.62 31.66 -15 32 C-13.52452698 25.07387178 -11.76286561 18.26181804 -9.875 11.4375 C-9.45927734 9.92446289 -9.45927734 9.92446289 -9.03515625 8.38085938 C-8.35871949 5.92002911 -7.68029918 3.45976474 -7 1 C-4.50935112 0.31292445 -2.62113708 0 0 0 Z " fill="#0982BA" transform="translate(292,155)"/>
<path d="M0 0 C2.31 0 4.62 0 7 0 C5.85764996 4.29260168 4.71053368 8.5839152 3.5625 12.875 C3.23701172 14.09832031 2.91152344 15.32164062 2.57617188 16.58203125 C2.26357422 17.74863281 1.95097656 18.91523438 1.62890625 20.1171875 C1.1968689 21.73536377 1.1968689 21.73536377 0.75610352 23.38623047 C0 26 0 26 -1 28 C-3.31 28 -5.62 28 -8 28 C-6.85764996 23.70739832 -5.71053368 19.4160848 -4.5625 15.125 C-4.23701172 13.90167969 -3.91152344 12.67835938 -3.57617188 11.41796875 C-3.26357422 10.25136719 -2.95097656 9.08476562 -2.62890625 7.8828125 C-2.34088135 6.80402832 -2.05285645 5.72524414 -1.75610352 4.61376953 C-1 2 -1 2 0 0 Z " fill="#0982BA" transform="translate(434,158)"/>
<path d="M0 0 C2.31 0 4.62 0 7 0 C5.85764996 4.29260168 4.71053368 8.5839152 3.5625 12.875 C3.23701172 14.09832031 2.91152344 15.32164062 2.57617188 16.58203125 C2.26357422 17.74863281 1.95097656 18.91523438 1.62890625 20.1171875 C1.1968689 21.73536377 1.1968689 21.73536377 0.75610352 23.38623047 C0 26 0 26 -1 28 C-3.31 28 -5.62 28 -8 28 C-6.85764996 23.70739832 -5.71053368 19.4160848 -4.5625 15.125 C-4.23701172 13.90167969 -3.91152344 12.67835938 -3.57617188 11.41796875 C-3.26357422 10.25136719 -2.95097656 9.08476562 -2.62890625 7.8828125 C-2.34088135 6.80402832 -2.05285645 5.72524414 -1.75610352 4.61376953 C-1 2 -1 2 0 0 Z " fill="#0982BA" transform="translate(213,158)"/>
<path d="M0 0 C-0.62057657 2.56364399 -1.24629199 5.12584926 -1.875 7.6875 C-2.04902344 8.40873047 -2.22304688 9.12996094 -2.40234375 9.87304688 C-2.90793668 11.92350708 -3.44827612 13.96154192 -4 16 C-4.25007812 16.97582031 -4.50015625 17.95164063 -4.7578125 18.95703125 C-6 21 -6 21 -9.125 21.8125 C-10.07375 21.874375 -11.0225 21.93625 -12 22 C-11.35451147 19.24991865 -10.70862234 16.49993244 -10.0625 13.75 C-9.88009766 12.97269531 -9.69769531 12.19539062 -9.50976562 11.39453125 C-9.33251953 10.64042969 -9.15527344 9.88632813 -8.97265625 9.109375 C-8.72914429 8.07248535 -8.72914429 8.07248535 -8.48071289 7.01464844 C-8.24276001 6.01739746 -8.24276001 6.01739746 -8 5 C-7.87681396 4.27586914 -7.75362793 3.55173828 -7.62670898 2.80566406 C-7.41989502 2.20979492 -7.21308105 1.61392578 -7 1 C-4 0 -4 0 0 0 Z " fill="#0982BA" transform="translate(601,165)"/>
<path d="M0 0 C-0.62057657 2.56364399 -1.24629199 5.12584926 -1.875 7.6875 C-2.04902344 8.40873047 -2.22304688 9.12996094 -2.40234375 9.87304688 C-2.90793668 11.92350708 -3.44827612 13.96154192 -4 16 C-4.25007813 16.97582031 -4.50015625 17.95164063 -4.7578125 18.95703125 C-6 21 -6 21 -9.125 21.8125 C-10.07375 21.874375 -11.0225 21.93625 -12 22 C-11.35451147 19.24991865 -10.70862234 16.49993244 -10.0625 13.75 C-9.88009766 12.97269531 -9.69769531 12.19539062 -9.50976562 11.39453125 C-9.33251953 10.64042969 -9.15527344 9.88632813 -8.97265625 9.109375 C-8.72914429 8.07248535 -8.72914429 8.07248535 -8.48071289 7.01464844 C-8.24276001 6.01739746 -8.24276001 6.01739746 -8 5 C-7.87681396 4.27586914 -7.75362793 3.55173828 -7.62670898 2.80566406 C-7.41989502 2.20979492 -7.21308105 1.61392578 -7 1 C-4 0 -4 0 0 0 Z " fill="#0982BA" transform="translate(503,165)"/>
<path d="M0 0 C-0.62057657 2.56364399 -1.24629199 5.12584926 -1.875 7.6875 C-2.04902344 8.40873047 -2.22304688 9.12996094 -2.40234375 9.87304688 C-2.90793668 11.92350708 -3.44827612 13.96154192 -4 16 C-4.25007813 16.97582031 -4.50015625 17.95164063 -4.7578125 18.95703125 C-6 21 -6 21 -9.125 21.8125 C-10.07375 21.874375 -11.0225 21.93625 -12 22 C-11.35451147 19.24991865 -10.70862234 16.49993244 -10.0625 13.75 C-9.88009766 12.97269531 -9.69769531 12.19539062 -9.50976562 11.39453125 C-9.33251953 10.64042969 -9.15527344 9.88632813 -8.97265625 9.109375 C-8.72914429 8.07248535 -8.72914429 8.07248535 -8.48071289 7.01464844 C-8.24276001 6.01739746 -8.24276001 6.01739746 -8 5 C-7.87681396 4.27586914 -7.75362793 3.55173828 -7.62670898 2.80566406 C-7.41989502 2.20979492 -7.21308105 1.61392578 -7 1 C-4 0 -4 0 0 0 Z " fill="#0982BA" transform="translate(312,165)"/>
<path d="M0 0 C1.2065625 0.0309375 1.2065625 0.0309375 2.4375 0.0625 C3.0625 1.875 3.0625 1.875 3.4375 4.0625 C2.4475 5.5475 2.4475 5.5475 1.4375 7.0625 C-1.6875 7.25 -1.6875 7.25 -4.5625 7.0625 C-3.5234375 0.0859375 -3.5234375 0.0859375 0 0 Z " fill="#0982BA" transform="translate(600.5625,155.9375)"/>
<path d="M0 0 C1.2065625 0.0309375 1.2065625 0.0309375 2.4375 0.0625 C3.0625 1.875 3.0625 1.875 3.4375 4.0625 C2.4475 5.5475 2.4475 5.5475 1.4375 7.0625 C-1.6875 7.25 -1.6875 7.25 -4.5625 7.0625 C-3.5234375 0.0859375 -3.5234375 0.0859375 0 0 Z " fill="#0982BA" transform="translate(502.5625,155.9375)"/>
<path d="M0 0 C1.2065625 0.0309375 1.2065625 0.0309375 2.4375 0.0625 C3.0625 1.875 3.0625 1.875 3.4375 4.0625 C2.4475 5.5475 2.4475 5.5475 1.4375 7.0625 C-1.6875 7.25 -1.6875 7.25 -4.5625 7.0625 C-3.5234375 0.0859375 -3.5234375 0.0859375 0 0 Z " fill="#0982BA" transform="translate(311.5625,155.9375)"/>
</svg>
